# xmcd CD database file
#
# Track frame offsets:
#	150
#	13452
#	29509
#	42029
#	53955
#	71175
#	83414
#	95072
#	109559
#	121222
#	135702
#	147852
#	158314
#	168806
#
# Disc length: 2396 seconds
#
# Revision: 0
# Processed by: cddbd v1.5.1PL2 Copyright (c) Steve Scherf et al.
# Submitted via: CDex 1.51
#
DISCID=b3095a0e
DTITLE=Various Artist - Country's Greatest Hits CD 2
DYEAR=2005
DGENRE=Country
TTITLE0=Lynn Anderson-Rose Garden
TTITLE1=Johnny Lee-Looking For Love
TTITLE2=Charlie Rich-Behind Closed Doors
TTITLE3=Donna Fargo-The Happiest Girl In The Whole USA
TTITLE4=Ray Price-For The Good Times
TTITLE5=Johnny Paycheck-Take This Job
TTITLE6=Sammy Smith-Help Me Make It Through The Night
TTITLE7=T Graham Brown-Darlene
TTITLE8=Freddy Fender-Before The Next Teradrop Falls
TTITLE9=Lee Greenwood-God Bless The USA
TTITLE10=Wanda Jackson-Right Or Wrong
TTITLE11=Dave Dudley-Six Days On The Road
TTITLE12=George Hamilton IV-Abilene
TTITLE13=Little Jimmy Dickens-The Bird Of Paradise
EXTD=YEAR: 2005
EXTT0=
EXTT1=
EXTT2=
EXTT3=
EXTT4=
EXTT5=
EXTT6=
EXTT7=
EXTT8=
EXTT9=
EXTT10=
EXTT11=
EXTT12=
EXTT13=
PLAYORDER=
